<svg xmlns="http://www.w3.org/2000/svg" viewBox="0 0 28.59 48"><defs><style>.cls-1{fill:#0089cd;stroke:#fdfeff;stroke-miterlimit:10;stroke-width:2px;}</style></defs><g id="Layer_2" data-name="Layer 2"><g id="Layer_1-2" data-name="Layer 1"><path class="cls-1" d="M24.42,1l.59.15a3.58,3.58,0,0,1,1.7,5.78l-.4.41L10,23.68a2.67,2.67,0,0,1-.34.29l.3.32L26.43,40.8a3.57,3.57,0,0,1-4.78,5.3c-.62-.56-1.19-1.17-1.79-1.76L2.18,26.66a3.58,3.58,0,0,1-.43-4.84c.16-.19.33-.37.51-.55L20.75,2.78A5.13,5.13,0,0,1,23.61,1Z"/></g></g></svg>