<svg xmlns="http://www.w3.org/2000/svg" viewBox="0 0 28.59 48"><defs><style>.cls-1{fill:#0089cd;stroke:#fdfeff;stroke-miterlimit:10;stroke-width:2px;}</style></defs><g id="Layer_2" data-name="Layer 2"><g id="Layer_1-2" data-name="Layer 1"><path class="cls-1" d="M4.17,1l-.58.15a3.58,3.58,0,0,0-1.7,5.78c.12.14.26.28.39.41L18.63,23.68c.1.1.21.18.34.29l-.3.32Q10.41,32.54,2.16,40.8a3.57,3.57,0,0,0,4.78,5.3c.62-.56,1.2-1.17,1.79-1.76L26.41,26.66a3.58,3.58,0,0,0,.43-4.84,6.52,6.52,0,0,0-.51-.55L7.84,2.78A5.13,5.13,0,0,0,5,1Z"/></g></g></svg>